<?xml version="1.0" encoding="UTF-8" standalone="no"?>
<!DOCTYPE svg PUBLIC "-//W3C//DTD SVG 1.1//EN" "http://www.w3.org/Graphics/SVG/1.1/DTD/svg11.dtd">
<svg xmlns="http://www.w3.org/2000/svg" version="1.1" xmlns:xlink="http://www.w3.org/1999/xlink" width="650px" height="3030.0px">
<style>text {font-family:PingFangSC-Regular, Microsoft YaHei, 'Hiragino Sans GB', Helvetica; ;font-size:14px;fill:#333;}</style>
	<text x="0" y="41">厨宇咸脑释匪坦槐完指剃系箱嗓遮郑绣突雀答愉甘刀秩岩笔顽狠缺茫纵址膊泳婚金暮政今乔攻丙</text>
	<text x="0" y="82">即吹脚信啄梨蒜资搭疗晓忧牺大拐丹束叠急普朝掠恶欺喷喇模著图研钟辰笨玩胸缘小郊悲请渡处</text>
	<text x="0" y="116">臭抛裂哈眨游董蛇瞎辞锐哗掌挤尸微胡抵佳迟法汤雹粉囊病符随避待功末紫伟鼠波伤旱立炮英朽</text>
	<text x="0" y="147">假窄踏抬及临赖趟真案汪只阳净歉耳杯绪滥版单地斩帮五绞业录甩你一尘搞或傅侍砌胆喉刘层挥</text>
	<text x="0" y="192">猫茶计稻葬各庄闪犬妈诗劲配上刑火盆府碧仔墙宽撑添稀庆降狼陷喘环笼袄龄偷争渐会神梦糊涝</text>
	<text x="0" y="240">畜朱孝诉孙妥剥舞乘虑长爹感廊油走查天赢浇子纽从爪峰还朗蜻悦培冶得胳悄盏探胖扇蓝集庸习</text>
	<text x="0" y="275">捕康按绒袍令疼铁泼侵终匀扒俗止弱曾龙挣浆溉妇丧债点深烘勤怕肺谱截几千织存轻莫粒联叉项</text>
	<text x="0" y="319">旅酿羡简智肆雪情见镜库而烤留挡羊短抚谈无握使错侦抓益抢愤次沟膀复韵吩文斯进称军灾霞修</text>
	<text x="0" y="367">膝席辜巧之些疑姥惠夸偿戏慨剑贸需泰伯颗伍窃寺栋怪灭废间裕裹据欧驱便垃御烈怎架揪海贪云</text>
	<text x="0" y="416">垫机框热棉足鹿均唐孟儿睛医墓诱积丝辆森逢闲侄纹柳舌秘饿渔头洲徐屡其奸周士姜宪竿矿伏荡</text>
	<text x="0" y="456">苍纪芬睁瞧扭桨醋息锄湾勇薄寇首奖呆现盐浑禽活丘乞衫脂充袋宴后叹纺静捎像铜片隙组则认梅</text>
	<text x="0" y="495">剖初声花键粱鸭耽蚂步运删阵赔扁吵送嫩象位炸赴抽瓶画咽冰相缩洋任抹垦皱奇宵呢父协致薯炭</text>
	<text x="0" y="541">却拼勉角折柔爷晃袜般娘您恳容光腐掏书搂合并职发颜妹萌又慕绸字桃烂戚稳粥芳伴剧圆毙早胶</text>
	<text x="0" y="591">备连己堡训慎素橘词钢哪佣虾芦坐栏餐匙淘永面涛意博沾封喝宰穗牌锤助拔喊麦满陕遍独刊伙调</text>
	<text x="0" y="633">反犹化否腾损炼世萍兄缠猎熔拖饲禁岔蒙坑虽躲夫亚幼吴断疤秋宾人泻催杏赶隐覆香害痕堆笑杀</text>
	<text x="0" y="680">献巷展毛饼蚀效凝坟粗攀型萄肥艇身虹盈贝邻珠兆缎揉辛庙码棒台漆主逐约座矛途消谜雄退向犯</text>
	<text x="0" y="720">趴实木语析勾割投窗如绵垮以默质冬刻款利附忽播菊为保坊磁狭姨仅对他评判杠委蹲才惜非枣归</text>
	<text x="0" y="770">券言脊垒矩锻红丈唱旬括洽哄本棚辫剂畏告索扶姿祥挪汁沿筐奴北群累接晨样弹丢乒围插个阔壁</text>
	<text x="0" y="819">支循航拥料忆叛落籍驴鱼济坡将醉拜脖奋戒筹胃多辩护全澡倾睡守租斧冷搅悟副必娃绍烟省鹅疾</text>
	<text x="0" y="850">供距骂体匆竭樱药忘诸温吧辟证是锡毅骗岛菠侮先漂久程报驳递决友涨邮翠瘦观抱浩廉魄下哑山</text>
	<text x="0" y="882">内穿打讽条古速寨膛啊缓涉跪作暖肤题拴柴锦亡刺刮吊姑振童豪伶详炊毁冈踩蛛糖鞠显敞酱国晴</text>
	<text x="0" y="922">揭撒盒宣援爱夜夺艳裤肠偶旋桑除卜听潜阅升闭杂尤妻不亦造态烫裳震乱猪叔跌节要当互左磨毒</text>
	<text x="0" y="958">淹党钞违密漫移惨承沃端蚁弦丁碗迫掩港敢外触狐僚入堤骤柿货牙击辉貌秃整疆导巡力腥峡借愈</text>
	<text x="0" y="1006">扎懒敏了视陆德类扔咱直匹做顾罩藏宋彻姐队危凯都猜隔到乡卸纷能仁燃客惊桐捷拆询血提的鬼</text>
	<text x="0" y="1051">艘屯钱交秀同夕讨商躁驶炉让贩怒谨脸败装雁季倘汉轨盗腿箭亿激警续苦擦慰贼绘闷污跟桥镇眉</text>
	<text x="0" y="1098">庭拦育嫌宗谦稍究猛挂给瓦死桂燕因洒掀蹄采摸扫婶范吨岁尼督丽呼选百取可厅羞殖记布块炎稿</text>
	<text x="0" y="1133">具窑耗时属燥膜适肌堂洗须押暂惧僻宁仇说涂西鸟二柱蚕塔右柏赚倡故崖李逃俯凉锈吼迹靠宏饶</text>
	<text x="0" y="1169">硬松筋克敬破蓬映兴仓耐居葵板过摘浸话蠢黑烦篮裁葛妙女娇聚虏尺夹户来优蔽泉熊旷狸应细遥</text>
	<text x="0" y="1200">捞僵达挠历链划蚊繁芒算贺塞南遗钩办店部焰饰什锯俱值翻搬然拣由星美咬帅泽弟颈毯衣赛铺零</text>
	<text x="0" y="1250">设耀屑嘴梳贤残挨米汗锁刃陡拒碑筑梯余碌鉴舰削瞒卖乓仿哭太始丛摆惰劈胁识恐格舍撇许签秤</text>
	<text x="0" y="1289">厕莲钥很换逝悬每弄隶壤秧煎袖罐滴腊替珍学誉讯惭茧坏岗腰蒸匠领邀疮锹套皆斤仍馒爬石出蝴</text>
	<text x="0" y="1327">尝蔬佩青暗络榜新午炕团既苏畅但剪啦阿良宝逗箩贫恩江蜓爆滑床毫挖吉域特酬挺蹦明例官散嘉</text>
	<text x="0" y="1364">圈幕躺冠悔清赏捉前齐努谢渣汇列结晚弯欢辨何嚷兵极酸洪白礼誓猾摩月源卷盛膏中胀跨买宜更</text>
	<text x="0" y="1402">再乖耕菜切晒绝杰妖杆获阀她唇赌远梢币雾虎论翼摊总缴额芽勿肃圣停度魔较通近召年用城级亏</text>
	<text x="0" y="1433">劣盘跳家名脾竟电另鞭表强墨谷未易娱铅郎哥轧恨渴熟昼壳戴昏飘统腹负湿袭晶玉拌泡灵有土牧</text>
	<text x="0" y="1480">第望搏朴滋启科欠渠离宙拿堵班参凭成至扛饭演持狗堪解骡幸也皮盯醒枝正染寿镰届叨阻去排财</text>
	<text x="0" y="1517">数秒虚鲁脱竖孩引枪昂坝尾征吗严检吓牲械侨胞觉酷制彩底输路就产验扰笛蕉勺吞站牵舒元材税</text>
	<text x="0" y="1553">川带促策阴兽皇横拉议贡空愿咐句铃万糟聪革器车弃赤滚衡传销驾涌茄仰酒孕猴拳局帝恼乐混糕</text>
	<text x="0" y="1592">棵旺骆盲谁冻草椒掉软煮疫核奏煌塑璃确耍误谅好漏食精网售楼歼浓肯与河颂嘱尖君敌敲界男半</text>
	<text x="0" y="1631">屠罪铸奉刚讲仪果览重淡期闻民钳色央超贯漠似希溜该狡常饮坛帜衔携嫂宫荐崭阁转捧社员徒行</text>
	<text x="0" y="1663">费旨卧乌福看关农且肩岸份依择州黄迷俘段慈减怨棕鄙姓事亩估险亭蓄遣银飞逮脏代蜂霸透淋扑</text>
	<text x="0" y="1708">嗽述倍禾分音规申眯夏雕住砍剩豆闹知蛋奔陵放惩包纱灌迈摧榴懂痛忍魂灶衰服访烧寻标呀概顷</text>
	<text x="0" y="1741">扩操舱扯仆哲绿性滩京孔垂私绳监泄井蛾滤肾朋锅执恒帖露贵尚爽唉岂宿丸诊纠躬照孤凤巾倒慧</text>
	<text x="0" y="1772">富虫奥奶际比锋殿溪辱黎劳示鸣心景笋浅县汽瓣田薪兼摔呜邪跑开谊欣理怠收战举趣遭兔轰根吸</text>
	<text x="0" y="1816">慌描泛响骄四境市序鞋幻占叫尽槽倦轿茅聋辈察善诞榨乙低叙逆方径三氧维蜘悉艰构付练粮么予</text>
	<text x="0" y="1850">蝶嚼华所休闸阶招凶逼室捐译高林祝恋日读技仗迁偏拘沉困威厌唤穷背房炒蛙乏略筒愚灿风册钻</text>
	<text x="0" y="1887">纸浪气凑预异少屋柜陈在辽价变恰饺咳耻订课场司找肝旁被越候株烛别吐碍最颤桶垄鸽肚边马口</text>
	<text x="0" y="1920">披胜遵絮流椅撞隆填厂苗推营园尊融权自祸种起筛赵稼糠驼喂鼻麻荣区祖筝惯继势式践教它养浊</text>
	<text x="0" y="1968">蔑昨弊屿试龟痰屈野遇狂线扬馆哀问枕踪棍嫁受于含够妨寸免琴蹈篇舟丰定老栽恢七盟瑞杜量葱</text>
	<text x="0" y="2001">殃惑栗呈控这朵玻昌十膨腔陶竹抄楚院工限恭缝者帆稠挽撕摄谎状经史罢师张卡页防母拢纲圾寄</text>
	<text x="0" y="2033">赞慢卵灯辣施贞牢绢授骨粪救校舅春厘律俊氏劝爸串挑街贿射障浮橡某伪改叶叼顿树凳帽件快捏</text>
	<text x="0" y="2074">脆植狱睬着搜灰勒那悼盖欲失扣铲碰延纤载犁岭沸趁梁审泊挎荷粘两乎往享尿叮测液鹊歌泪忠众</text>
	<text x="0" y="2114">臂盾没绑基萝罚亲曲谣弓刷熄治崇骑霜安志泥购悠道贱齿专驻编置目纳王怜东霉寒役砖责池滔原</text>
	<text x="0" y="2161">歪公馅甚傲增固补矮族忌症股眼跃迅章唯鸦伸浙八此允绕踢怖旦亮拍健等想冲葡思浴竞钉紧苹鲜</text>
	<text x="0" y="2201">手愧难武痒登顺味颠茂润蛮鹰晕蜜求影毕九甜贷形患皂拨赠船干肢窝乳桌歇准物旧翁谋顶沙水倚</text>
	<text x="0" y="2232">厉伞票创里惹命姻拾门哨考鸡柄批派疯抗纯捆晌芹斑加劫裙妄碎介雅暴巨牛蝇们写搁肉衬回壮村</text>
	<text x="0" y="2278">煤婆肿穴建俩艺追绩枯雨菌湖托昆洞滨厦钓馋企傻殊斥注暑沫仙六壶沈励伐羽广杨潮球坚榆津俭</text>
	<text x="0" y="2315">厚冤闯洁翅雷晋我陪饱迎傍贴凡臣和抖罗眠扮疏喜焦号诵共掘担斜缸瓜惕佛撤斗蜡忙帐秆率冒储</text>
	<text x="0" y="2358">典帘念甲盼双础乃芝趋荒侧诚狮鼓生窜动卫丑返义轮饥术况把渗塘差已品怀巴棋愁咏平茎针巩摇</text>
	<text x="0" y="2394">旗脉辅塌若兰驰务管档埋幅锣压彼番螺吃疲捡宅</text>
</svg>